<?xml version="1.0" encoding="utf-8"?>
<!-- Generator: Adobe Illustrator 23.1.0, SVG Export Plug-In . SVG Version: 6.00 Build 0)  -->
<svg version="1.1" id="Illustration" xmlns="http://www.w3.org/2000/svg" xmlns:xlink="http://www.w3.org/1999/xlink" x="0px"
	 y="0px" viewBox="0 0 3000 3000" style="enable-background:new 0 0 3000 3000;" xml:space="preserve">
<style type="text/css">
	.st0{fill:#EDEDED;}
	.st1{fill:url(#SVGID_1_);}
	.st2{fill:url(#SVGID_2_);}
	.st3{fill:url(#SVGID_3_);}
	.st4{fill:url(#SVGID_4_);}
	.st5{fill:url(#SVGID_5_);}
	.st6{fill:url(#SVGID_6_);}
	.st7{opacity:0.68;fill:#FFFFFF;}
	.st8{fill:url(#SVGID_7_);}
	.st9{fill:url(#SVGID_8_);}
	.st10{fill:url(#SVGID_9_);}
	.st11{fill:url(#SVGID_10_);}
	.st12{fill:#FFFFFF;}
	.st13{opacity:0.5;fill:url(#SVGID_11_);}
	.st14{opacity:0.5;fill:url(#SVGID_12_);}
	.st15{opacity:0.61;fill:#FFFFFF;}
	.st16{fill:url(#SVGID_13_);}
	.st17{fill:url(#SVGID_14_);}
	.st18{fill:url(#SVGID_15_);}
	.st19{fill:url(#SVGID_16_);}
	.st20{fill:url(#SVGID_17_);}
	.st21{fill:url(#SVGID_18_);}
	.st22{fill:url(#SVGID_19_);}
	.st23{fill:url(#SVGID_20_);}
	.st24{fill:url(#SVGID_21_);}
	.st25{fill:url(#SVGID_22_);}
	.st26{fill:url(#SVGID_23_);}
	.st27{opacity:0.3;fill:url(#SVGID_24_);}
	.st28{fill:url(#SVGID_25_);}
	.st29{fill:url(#SVGID_26_);}
	.st30{opacity:0.3;}
	.st31{fill:url(#SVGID_27_);}
	.st32{fill:url(#SVGID_28_);}
	.st33{fill:url(#SVGID_29_);}
	.st34{fill:url(#SVGID_30_);}
	.st35{fill:url(#SVGID_31_);}
	.st36{fill:url(#SVGID_32_);}
	.st37{opacity:0.3;fill:url(#SVGID_33_);}
	.st38{fill:url(#SVGID_34_);}
	.st39{fill:url(#SVGID_35_);}
	.st40{fill:url(#SVGID_36_);}
	.st41{fill:url(#SVGID_37_);}
	.st42{fill:url(#SVGID_38_);}
	.st43{fill:url(#SVGID_39_);}
	.st44{fill:url(#SVGID_40_);}
	.st45{opacity:0.48;fill:#FFFFFF;}
	.st46{fill:url(#SVGID_41_);}
	.st47{fill:url(#SVGID_42_);}
</style>
<g>
	<path class="st0" d="M755.4,220.5C659,361,772,588.6,629.1,694.2C489.9,797,319,628.5,187.9,717c-194.5,131.3-159,732,125.4,1105.2
		c85.5,112.2,157,155.9,188.7,282.9c68,272.6-170.9,434.7-125.4,569.5c102.4,303.5,1676.4,558.2,2308-354
		c295-426.1,339.1-1041.3,75.6-1508.6C2283.8-32.3,971.5-94.6,755.4,220.5z"/>
	<g>
		<linearGradient id="SVGID_1_" gradientUnits="userSpaceOnUse" x1="424.7051" y1="1543.0453" x2="878.5345" y2="1495.6302">
			<stop  offset="3.597000e-03" style="stop-color:#260912"/>
			<stop  offset="1" style="stop-color:#AB2250"/>
		</linearGradient>
		<path class="st1" d="M237.7,2486.6c-54.2,3.2-98.5-34.7-98.5-84.5V608.4c0-49.8,44.3-88.6,98.5-86.7l2559.1,92.9
			c41.5,1.5,75.1,37.9,75.1,81.1v1558.5c0,43.2-33.6,80.4-75.1,82.8L237.7,2486.6z"/>
		<linearGradient id="SVGID_2_" gradientUnits="userSpaceOnUse" x1="1392.1295" y1="2929.5149" x2="1488.2827" y2="2791.782">
			<stop  offset="0" style="stop-color:#AB2250"/>
			<stop  offset="0.9964" style="stop-color:#260912"/>
		</linearGradient>
		<path class="st2" d="M1906.2,2685.1c-40.9-14.2-71.5-50.7-80.1-95.4l-59.5-309.1l-509.3,19l-62.7,322.1
			c-8.8,45.1,26.4,90.4,66.8,107l213.1,87.5c39.6,16.3,82.2,22.7,124.6,18.9l450.3-40.4c13.2-1.2,23.7-12,25.3-26
			c1.5-13.9,10.8-29.6-1.8-33.9L1906.2,2685.1z"/>
		<linearGradient id="SVGID_3_" gradientUnits="userSpaceOnUse" x1="1683.2007" y1="2894.2075" x2="1536.0408" y2="2095.3411">
			<stop  offset="0" style="stop-color:#AB2250"/>
			<stop  offset="0.9964" style="stop-color:#260912"/>
		</linearGradient>
		<path class="st3" d="M1911.2,2666.3c-40.9-14.1-71.4-50-80-94.2l-59.5-305.3l-496.9,18.8l-62.6,318
			c-8.8,44.5,14.4,89.2,54.9,105.6l212.9,86.4c39.6,16.1,82.1,22.5,124.4,18.7l449.8-39.9c13.1-1.2,23.7-11.9,25.2-25.6
			c1.5-13.8-6.4-26.7-18.9-31L1911.2,2666.3z"/>
		<g>
			<g>
				<linearGradient id="SVGID_4_" gradientUnits="userSpaceOnUse" x1="2046.2224" y1="688.8862" x2="2782.6545" y2="-362.1724">
					<stop  offset="0" style="stop-color:#AB2250"/>
					<stop  offset="0.9964" style="stop-color:#260912"/>
				</linearGradient>
				<path class="st4" d="M258,2486.6c-54.2,3.2-98.5-34.7-98.5-84.5V608.4c0-49.8,44.3-88.6,98.5-86.7l2559.1,92.9
					c41.5,1.5,75.1,37.9,75.1,81.1v1558.5c0,43.2-33.6,80.4-75.1,82.8L258,2486.6z"/>
				<linearGradient id="SVGID_5_" gradientUnits="userSpaceOnUse" x1="1726.3671" y1="813.6831" x2="805.1875" y2="3739.4751">
					<stop  offset="0" style="stop-color:#AB2250"/>
					<stop  offset="0.9964" style="stop-color:#260912"/>
				</linearGradient>
				<path class="st5" d="M2817.1,651.2L258,563.5c-29-1-52.6,19.7-52.6,46.3v1395.5v394.2c0,26.6,23.6,46.8,52.6,45.2l2559.1-144.4
					c22.2-1.3,40.2-21.1,40.2-44.3V1900V694.6C2857.3,671.4,2839.3,652,2817.1,651.2z"/>
				<linearGradient id="SVGID_6_" gradientUnits="userSpaceOnUse" x1="2172.4712" y1="324.9174" x2="-8.5382" y2="3936.4834">
					<stop  offset="0" style="stop-color:#FFF2F6"/>
					<stop  offset="1" style="stop-color:#C45276"/>
				</linearGradient>
				<path class="st6" d="M258,2292.3c-11.3,0.6-20.5-7.4-20.5-17.8V610.9c0-10.3,9.2-18.5,20.5-18.1l2559.1,84.1
					c8.7,0.3,15.7,7.9,15.7,16.9v1455.7c0,9-7,16.8-15.7,17.2L258,2292.3z"/>
			</g>
			<g>
				<polygon class="st7" points="2730,2077 370.2,2180.6 370.2,841.4 2730,891 				"/>
				<linearGradient id="SVGID_7_" gradientUnits="userSpaceOnUse" x1="1548.2526" y1="781.0734" x2="1497.2941" y2="1202.8938">
					<stop  offset="0" style="stop-color:#AB2250"/>
					<stop  offset="0.9964" style="stop-color:#260912"/>
				</linearGradient>
				<polygon class="st8" points="2730,850.5 370.2,795.7 370.2,681.3 2730,749.2 				"/>
				<g>
					<linearGradient id="SVGID_8_" gradientUnits="userSpaceOnUse" x1="2651.083" y1="555.3439" x2="2545.9001" y2="778.0842">
						<stop  offset="0" style="stop-color:#FFF2F6"/>
						<stop  offset="1" style="stop-color:#C45276"/>
					</linearGradient>
					<path class="st9" d="M2550.7,795.2c0,7.2-5.7,13-12.7,12.8c-7-0.2-12.7-6.2-12.7-13.4c0-7.2,5.7-13,12.7-12.8
						C2545,781.9,2550.7,787.9,2550.7,795.2z"/>
					<linearGradient id="SVGID_9_" gradientUnits="userSpaceOnUse" x1="2693.3413" y1="577.9609" x2="2588.5042" y2="799.9695">
						<stop  offset="0" style="stop-color:#FFF2F6"/>
						<stop  offset="1" style="stop-color:#C45276"/>
					</linearGradient>
					<path class="st10" d="M2603,796.5c0,7.2-5.7,12.9-12.7,12.7c-7-0.2-12.7-6.2-12.7-13.4c0-7.2,5.7-12.9,12.7-12.7
						C2597.3,783.3,2603,789.3,2603,796.5z"/>
					<linearGradient id="SVGID_10_" gradientUnits="userSpaceOnUse" x1="2735.3708" y1="600.4288" x2="2630.8755" y2="821.7131">
						<stop  offset="0" style="stop-color:#FFF2F6"/>
						<stop  offset="1" style="stop-color:#C45276"/>
					</linearGradient>
					<path class="st11" d="M2654.9,797.9c0,7.2-5.6,12.9-12.6,12.7c-7-0.2-12.6-6.2-12.6-13.4c0-7.2,5.6-12.9,12.6-12.7
						C2649.3,784.7,2654.9,790.7,2654.9,797.9z"/>
				</g>
				<g>
					<polygon class="st7" points="2252.4,1863.3 421.7,1920.8 421.7,876.2 2252.4,911.7 					"/>
				</g>
				<g>
					<g>
						<polygon class="st7" points="2704.7,1188.3 2284.4,1186.3 2284.4,912.3 2704.7,920.4 						"/>
					</g>
					<polygon class="st12" points="2704.7,1237.4 2284.4,1236.5 2284.4,1216 2704.7,1217.3 					"/>
					<polygon class="st12" points="2548.3,1272 2284.4,1272 2284.4,1251.5 2548.3,1251.8 					"/>
				</g>
				<g>
					<g>
						<polygon class="st7" points="2704.7,1581.3 2284.4,1588.3 2284.4,1314.3 2704.7,1313.4 						"/>
					</g>
					<polygon class="st12" points="2704.7,1630.4 2284.4,1638.5 2284.4,1618 2704.7,1610.3 					"/>
					<polygon class="st12" points="2548.3,1668.4 2284.4,1674 2284.4,1653.5 2548.3,1648.1 					"/>
				</g>
				<g>
					<g>
						<polygon class="st7" points="2704.7,1974.3 2284.4,1990.4 2284.4,1716.3 2704.7,1706.4 						"/>
					</g>
					<polygon class="st12" points="2704.7,2023.4 2284.4,2040.6 2284.4,2020 2704.7,2003.3 					"/>
					<polygon class="st12" points="2548.3,2064.7 2284.4,2076 2284.4,2055.5 2548.3,2044.5 					"/>
				</g>
				<g>
					<polygon class="st12" points="1688.6,1991.4 421.7,2038.4 421.7,1969.8 1688.6,1927 					"/>
					<polygon class="st12" points="2252.4,1970.5 2071.6,1977.2 2071.6,1914 2252.4,1907.9 					"/>
					<polygon class="st12" points="2043.7,1978.2 1858.9,1985.1 1858.9,1921.2 2043.7,1915 					"/>
					<polygon class="st12" points="1001.3,2097.6 421.7,2121.4 421.7,2087.1 1001.3,2064.2 					"/>
				</g>
			</g>
		</g>
	</g>
	<g>
		<g>
			<g>
				<linearGradient id="SVGID_11_" gradientUnits="userSpaceOnUse" x1="1087.3362" y1="17.7834" x2="2447.9287" y2="1657.8478">
					<stop  offset="3.597120e-03" style="stop-color:#C4BDBA"/>
					<stop  offset="1" style="stop-color:#854157"/>
				</linearGradient>
				<path class="st13" d="M2451.4,219.6L744.9,195.8c-67.3-0.9-122,50.1-122,113.9v612.1c0,63.9,54.7,115.1,122,114.4l1706.5-17.3
					c60.6-0.6,109.6-50,109.6-110.3V330.3C2561,270,2512,220.4,2451.4,219.6z"/>
				<linearGradient id="SVGID_12_" gradientUnits="userSpaceOnUse" x1="2584.1614" y1="-449.9621" x2="-708.6655" y2="3082.7444">
					<stop  offset="3.597120e-03" style="stop-color:#C4BDBA"/>
					<stop  offset="1" style="stop-color:#854157"/>
				</linearGradient>
				<path class="st14" d="M744.9,956.5c-20.7,0.2-37.5-15.7-37.5-35.3V310.6c0-19.6,16.8-35.4,37.5-35.1l1706.5,19.9
					c18.7,0.2,33.9,15.5,33.9,34.2v579.5c0,18.6-15.2,33.9-33.9,34L744.9,956.5z"/>
			</g>
			<path class="st15" d="M1305,336.1l-482.8-4.9c-24.3-0.2-44,18.3-44,41.4v465.8c0,23.1,19.7,41.7,44,41.5l482.8-2.7
				c23.6-0.1,42.7-18.7,42.7-41.4V377.6C1347.6,354.9,1328.5,336.3,1305,336.1z"/>
			<polygon class="st12" points="2374.2,544.4 1509.2,540.8 1509.2,486.2 2374.2,491.2 			"/>
			<polygon class="st12" points="2374.2,635.5 1509.2,634.3 1509.2,579.8 2374.2,582.4 			"/>
			<polygon class="st12" points="2133,727 1509.2,727.9 1509.2,673.3 2133,673.5 			"/>
		</g>
		<g>
			<linearGradient id="SVGID_13_" gradientUnits="userSpaceOnUse" x1="2665.7771" y1="1180.0093" x2="2807.8818" y2="1758.9529">
				<stop  offset="0" style="stop-color:#E39F00"/>
				<stop  offset="0.9964" style="stop-color:#F78E25"/>
			</linearGradient>
			<path class="st16" d="M2594.1,889.1c-9.7,13.6-19.4,27.1-29.1,40.7c42.6,31.7,93.9,80.5,93,139.6
				c-1.3,89.2-120.3,118.1-127.9,209.3c-7.7,92.4,102.5,205.8,174.5,191.9c91.7-17.7,173.2-252.3,87.2-418.7
				C2737.2,946,2632.8,902.9,2594.1,889.1z"/>
			<linearGradient id="SVGID_14_" gradientUnits="userSpaceOnUse" x1="2663.4336" y1="1092.8309" x2="2556.822" y2="877.6691">
				<stop  offset="3.597000e-03" style="stop-color:#B37A4E"/>
				<stop  offset="1" style="stop-color:#F6C39A"/>
			</linearGradient>
			<path class="st17" d="M2587.1,924.7c0,0-31.3-10.8-40.4-21.4c-9.1-10.6-1.4-47.5-1-76.9c0.4-29.4,13.9,13.2,17,22.8
				c3.1,9.6,0.9,32,24.9,49.4L2587.1,924.7z"/>
			
				<linearGradient id="SVGID_15_" gradientUnits="userSpaceOnUse" x1="1366.9604" y1="1094.8203" x2="1353.3285" y2="931.2346" gradientTransform="matrix(0.9986 5.370000e-02 -5.370000e-02 0.9986 1247.1541 -37.3215)">
				<stop  offset="0" style="stop-color:#404040"/>
				<stop  offset="1" style="stop-color:#737373"/>
			</linearGradient>
			<path class="st18" d="M2514.3,1104.7c-11.3-22.3-16-22.2-18.8-34c-6.3-26.8,10-60.9,23.9-61.4c8.9-0.3,9.7,13.6,28.6,35.3
				c23.2,26.6,37.3,23.1,50.9,46.1c3.2,5.4,17.6,29.7,8.7,47.8c-11.3,23.1-55.8,26.8-74.4,8.9
				C2524.5,1139,2528.2,1132.1,2514.3,1104.7z"/>
			
				<linearGradient id="SVGID_16_" gradientUnits="userSpaceOnUse" x1="1318.4202" y1="853.6464" x2="1331.4501" y2="1335.7399" gradientTransform="matrix(0.9986 5.370000e-02 -5.370000e-02 0.9986 1247.1541 -37.3215)">
				<stop  offset="3.597000e-03" style="stop-color:#B37A4E"/>
				<stop  offset="1" style="stop-color:#F6C39A"/>
			</linearGradient>
			<path class="st19" d="M2547.6,1128.7c0,0-7.9,42.4-2.3,76.9c5.1,31.2,62.8,63.5,73.9,72.8c11.1,9.3-29.3,19.4-66.4,14.5
				c-37.1-4.8-138.6-37.3-154-55.4c-15.4-18.1,18-9.2,46-12.6c28.1-3.4,54.9-50.5,55.7-74.5
				C2501.4,1126.4,2547.6,1128.7,2547.6,1128.7z"/>
			<g>
				
					<linearGradient id="SVGID_17_" gradientUnits="userSpaceOnUse" x1="519.5451" y1="919.0626" x2="648.1153" y2="1054.5823" gradientTransform="matrix(-0.966 -0.2584 -0.2584 0.966 3382.9243 298.837)">
					<stop  offset="3.597000e-03" style="stop-color:#B37A4E"/>
					<stop  offset="1" style="stop-color:#F6C39A"/>
				</linearGradient>
				<path class="st20" d="M2535.5,1160.4c0,0-28.4,12.5-53.5-7.6c-22.5-18,11-73.3,33.8-74c7.6-0.2,18.8,5.2,25.4,13.2
					c3.9,4.7,4.1,7.9,10.6,15.5c6,7,8.6,7.6,9.5,11c1.1,4.3-0.8,11.4-16.2,23.6c7.7-1.4,14.3,0.6,16.9,5.1c0.4,0.7,1.3,2.9,1,5.2
					C2562.1,1160.8,2551.2,1164.7,2535.5,1160.4z"/>
			</g>
			<linearGradient id="SVGID_18_" gradientUnits="userSpaceOnUse" x1="1747.2415" y1="1149.7075" x2="1667.7671" y2="1021.7734">
				<stop  offset="3.597000e-03" style="stop-color:#B37A4E"/>
				<stop  offset="1" style="stop-color:#F6C39A"/>
			</linearGradient>
			<path class="st21" d="M1708.7,1039.3c0,0-17,3.4-22.8-29.4c-4.5-25.7-10.4-32.8-14.6-26.5c-4.2,6.3-0.1,20.6-0.1,20.6
				s-27.1-10.5-43.9-30.9c-16.8-20.4-15.4,1.2-13.2,13.6c2.2,12.3,29,43.7,39.4,47.7c10.4,4,32.4,29.7,32.4,29.7L1708.7,1039.3z"/>
			
				<linearGradient id="SVGID_19_" gradientUnits="userSpaceOnUse" x1="1079.825" y1="2991.7136" x2="993.4296" y2="2706.842" gradientTransform="matrix(-0.9999 1.380000e-02 1.380000e-02 0.9999 3218.7129 -10.0139)">
				<stop  offset="0" style="stop-color:#AB2250"/>
				<stop  offset="0.9964" style="stop-color:#260912"/>
			</linearGradient>
			<path class="st22" d="M2262.6,2857.1c8.8,18,6.4,25.8,4.2,29.2c-6.5,10-22,0.6-62.5,5.4c-4.8,0.6-13.8,1.8-25.2-0.9
				c-9.7-2.3-21.1-7.5-20.7-10.1c0.2-0.9,1.9-1.3,2.6-1.5c11.3-2.4,81.7-24,81.7-24L2262.6,2857.1z"/>
			
				<linearGradient id="SVGID_20_" gradientUnits="userSpaceOnUse" x1="-432.4098" y1="2385.0205" x2="-432.4098" y2="1927.3889" gradientTransform="matrix(-0.9819 -0.1895 -0.1895 0.9819 2266.6702 514.1929)">
				<stop  offset="0" style="stop-color:#F6C39A"/>
				<stop  offset="0.9964" style="stop-color:#B37A4E"/>
			</linearGradient>
			<path class="st23" d="M2277.8,2821l-11.9,31.8c-1.8,4.9-6.3,8.3-11.5,8.7c-5.3,0.4-11-1.1-11.8-9.3c-1-11.1,4.9-39.3,4.9-39.3
				L2277.8,2821z"/>
			
				<linearGradient id="SVGID_21_" gradientUnits="userSpaceOnUse" x1="485.5419" y1="2876.2085" x2="485.5419" y2="2418.5391" gradientTransform="matrix(-0.9999 1.380000e-02 1.380000e-02 0.9999 3218.7129 -10.0139)">
				<stop  offset="0" style="stop-color:#F6C39A"/>
				<stop  offset="0.9964" style="stop-color:#B37A4E"/>
			</linearGradient>
			<polygon class="st24" points="2750.9,2767.9 2767.9,2814.3 2792.6,2810.4 2786.9,2767.4 			"/>
			
				<linearGradient id="SVGID_22_" gradientUnits="userSpaceOnUse" x1="517.3619" y1="2893.5083" x2="430.9681" y2="2608.6416" gradientTransform="matrix(-0.9999 1.380000e-02 1.380000e-02 0.9999 3218.7129 -10.0139)">
				<stop  offset="0" style="stop-color:#AB2250"/>
				<stop  offset="0.9964" style="stop-color:#260912"/>
			</linearGradient>
			<path class="st25" d="M2775.6,2839.9c12-14.2,22.6-12.9,24.8-22.7c1.7-7.7-3-17.1-10.1-20.6c-9.9-5-22,2.8-24.7,4.6
				c-18.5,12-13.5,30.8-30.9,39c-3.5,1.6-9.1,3.4-14.9,8.9c-2.5,2.3-8.7,8.1-7.2,12.1c1.7,4.6,12.7,4.4,23.1,4.3
				c12.5-0.2,18.8-0.3,24.8-4C2768.9,2856.2,2766.4,2850.8,2775.6,2839.9z"/>
			
				<linearGradient id="SVGID_23_" gradientUnits="userSpaceOnUse" x1="1973.068" y1="2248.9749" x2="1931.0383" y2="3194.644" gradientTransform="matrix(-0.9766 0.215 0.215 0.9766 4057.4802 -700.8784)">
				<stop  offset="0" style="stop-color:#7D7D7D"/>
				<stop  offset="1" style="stop-color:#3D3C40"/>
			</linearGradient>
			<path class="st26" d="M2712,1798.7c14.4,92.8,17.4,173.9,15.6,240.9c-1.9,72.1-8.3,85.6-4.1,134.4c9.2,106.2,45.6,115,73.4,231.9
				c30.7,129,15.1,239,8.7,281c-5.6,36.7-12.9,66.9-18.7,88c-10,12.6-29,12-49,11.6c-28.8-116.9-58-226.5-86.8-343.4
				c-55.5-173.6-111-347.2-166.5-520.8C2560.4,1881.1,2636.2,1839.9,2712,1798.7z"/>
			
				<linearGradient id="SVGID_24_" gradientUnits="userSpaceOnUse" x1="1973.068" y1="2248.9749" x2="1931.0383" y2="3194.6436" gradientTransform="matrix(-0.9766 0.215 0.215 0.9766 4057.4802 -700.8784)">
				<stop  offset="0" style="stop-color:#E39F00"/>
				<stop  offset="0.9964" style="stop-color:#F78E25"/>
			</linearGradient>
			<path class="st27" d="M2737.9,2786.4c-28.8-116.9-58-226.5-86.8-343.4c-55.5-173.6-111-347.2-166.5-520.8
				c75.8-41.2,151.6-82.4,227.4-123.6c1,6.1,1.7,12.1,2.6,18.1c-95.1,119-103,200.9-92.1,253.8c13.2,64.2,54.2,89.6,64.5,184.2
				c7.3,67.7-10.6,83.1,0.5,143.3c14.2,77.6,55.5,115.1,80,156.9c23.6,40.4,40.5,100.8,26.2,193.6c-2.3,9.7-4.6,18.5-6.7,26
				C2776.9,2787.5,2757.9,2786.8,2737.9,2786.4z"/>
			
				<linearGradient id="SVGID_25_" gradientUnits="userSpaceOnUse" x1="1412.0967" y1="2329.5715" x2="479.6863" y2="2287.1885" gradientTransform="matrix(-0.9999 1.380000e-02 1.380000e-02 0.9999 3218.7129 -10.0139)">
				<stop  offset="0" style="stop-color:#7D7D7D"/>
				<stop  offset="1" style="stop-color:#3D3C40"/>
			</linearGradient>
			<path class="st28" d="M2580,1911.5c-1.8,44.5-9.2,111.8-38.1,187.1c-38.8,100.9-81.3,125-98.9,209.3
				c-18.4,88,15.3,122.5,17,203.6c1.6,75.9-25,184.5-156.6,319.8c-21.3-1.9-42.6-3.9-64-5.8c17.1-65.6,39.8-167.9,51.3-296
				c5.7-64.1,6.5-111,6.9-128.5c2.4-106.4,17.6-287.4,74-613.9C2441,1828.6,2510.5,1870.1,2580,1911.5z"/>
			<linearGradient id="SVGID_26_" gradientUnits="userSpaceOnUse" x1="2221.967" y1="1288.9449" x2="2364.0715" y2="1867.8871">
				<stop  offset="0" style="stop-color:#E39F00"/>
				<stop  offset="0.9964" style="stop-color:#F78E25"/>
			</linearGradient>
			<path class="st29" d="M1669.5,1051.9c13.6-7.8,27.1-15.5,40.7-23.3c150.2,147.7,281.1,188.4,373.2,198.1
				c139.1,14.7,236.2-41.8,421.7-3.3c58.4,12.1,160.3,34.7,216.8,118c14.8,21.9,20.1,38.4,44.8,195.4
				c31.5,200.7,32.6,235.7,28.2,278.9c-8.1,79.1-13.1,127-49.5,169.4c-96.8,112.6-302.6,54.5-328.4,46.9
				c-47.7-14.1-121.7-36.1-151.1-99c-21.8-46.7,1.6-74.2,8.9-165.1c3.7-45.8,15.2-188.9-52.8-274.1
				c-48.8-61.2-116.8-64.9-183.2-85.7C1933.5,1375.3,1798,1288.9,1669.5,1051.9z"/>
			<g class="st30">
				<linearGradient id="SVGID_27_" gradientUnits="userSpaceOnUse" x1="2081.6909" y1="1284.3966" x2="2616.6877" y2="2098.5229">
					<stop  offset="0" style="stop-color:#E39F00"/>
					<stop  offset="0.9964" style="stop-color:#F78E25"/>
				</linearGradient>
				<path class="st31" d="M2658.4,1931.5c-56.6-51-90-35.4-124.4-75.9c-79.7-93.7,38.9-247.8-31-321.7c-56-59.2-162.9,6.9-224-63.2
					c-40.5-46.5-4-87.7-40-135.8c-57-76.2-184.7-21.6-351.8-69.4c-39.3-11.3-74.2-26.3-104.6-42.6c91.8,111.8,181.6,162,256.2,185.4
					c66.5,20.8,134.4,24.5,183.2,85.7c68,85.1,56.5,228.3,52.8,274.1c-7.3,90.9-30.7,118.4-8.9,165.1c29.4,63,103.5,84.9,151.1,99
					c23.6,7,197.5,56,301.2-21.6C2704.1,1982.9,2684.9,1955.4,2658.4,1931.5z"/>
			</g>
		</g>
	</g>
	<g>
		
			<linearGradient id="SVGID_28_" gradientUnits="userSpaceOnUse" x1="-275.3152" y1="2681.5391" x2="-248.9382" y2="3017.2458" gradientTransform="matrix(-1 0 0 1 753.1995 0)">
			<stop  offset="0" style="stop-color:#7D7D7D"/>
			<stop  offset="1" style="stop-color:#38383B"/>
		</linearGradient>
		<path class="st32" d="M977.1,2849c0,0,106.2,48.3,107.9,56c1.7,7.7-68.3-2.6-96.9-1.5c-28.6,1.1-52.1-7.3-49.5-19.4
			c2.6-12.1,12.6-42.6,12.6-42.6L977.1,2849z"/>
		
			<linearGradient id="SVGID_29_" gradientUnits="userSpaceOnUse" x1="-207.2205" y1="2868.4385" x2="-212.016" y2="2520.7507" gradientTransform="matrix(-1 0 0 1 753.1995 0)">
			<stop  offset="0" style="stop-color:#F6C39A"/>
			<stop  offset="0.9964" style="stop-color:#B37A4E"/>
		</linearGradient>
		<path class="st33" d="M981,2809.8l-6.5,47.8c0,0-16.8,6-28.1-1.1l-4.8-52.4L981,2809.8z"/>
		
			<linearGradient id="SVGID_30_" gradientUnits="userSpaceOnUse" x1="223.1454" y1="2642.3792" x2="249.5219" y2="2978.0786" gradientTransform="matrix(-1 0 0 1 753.1995 0)">
			<stop  offset="0" style="stop-color:#7D7D7D"/>
			<stop  offset="1" style="stop-color:#38383B"/>
		</linearGradient>
		<path class="st34" d="M480.9,2810.9l-12.3,19.8c-3.5,5.5-4.5,12.2-2.8,18.5c4.3,16.5,12.9,48.6,16.7,57
			c5.1,11.4,73.8,18.2,73.8,18.2s6.1-8.6-8.1-19c-14.3-10.4-23.4-12.1-28.5-27.4c-5-15.4-8.4-58.8-8.4-58.8L480.9,2810.9z"/>
		
			<linearGradient id="SVGID_31_" gradientUnits="userSpaceOnUse" x1="249.5963" y1="2862.1387" x2="244.8006" y2="2514.4392" gradientTransform="matrix(-1 0 0 1 753.1995 0)">
			<stop  offset="0" style="stop-color:#F6C39A"/>
			<stop  offset="0.9964" style="stop-color:#B37A4E"/>
		</linearGradient>
		<path class="st35" d="M532.3,2760.6c-4.5,3.6-26.6,70.6-26.6,70.6s-7.1,9.1-20.7-4.3c-13.6-13.5-6.1-6-6.1-6l2.5-65.9
			L532.3,2760.6z"/>
		
			<linearGradient id="SVGID_32_" gradientUnits="userSpaceOnUse" x1="-290.1979" y1="2305.1887" x2="-33.1248" y2="2305.1887" gradientTransform="matrix(-1 0 0 1 753.1995 0)">
			<stop  offset="0" style="stop-color:#E39F00"/>
			<stop  offset="0.9964" style="stop-color:#F78E25"/>
		</linearGradient>
		<path class="st36" d="M1039.4,1849.4c5.6,142.6,5.8,297.5-2.4,463c-9.2,186.4-27.8,358.6-51.2,514.8c-8.7,0.3-17.8,0.3-27.4,0.1
			c-6.4-0.2-12.7-0.5-18.7-0.9c-12.1-32.4-26.5-75-39.3-125.8c-13.5-53.5-21.7-101.5-27.5-147.3c-20.4-161.5,3.5-175.6-13.1-295.3
			c-14.7-106-35.6-110.2-60.1-260.7c-26.6-163.3-6.8-187.8,2.8-196.7C843.5,1762.9,939.9,1788.5,1039.4,1849.4z"/>
		
			<linearGradient id="SVGID_33_" gradientUnits="userSpaceOnUse" x1="-290.1985" y1="2305.2" x2="-33.1263" y2="2305.2" gradientTransform="matrix(-1 0 0 1 753.1995 0)">
			<stop  offset="0" style="stop-color:#AB2250"/>
			<stop  offset="0.9964" style="stop-color:#383838"/>
		</linearGradient>
		<path class="st37" d="M802.5,1800.6c39.1-35.9,128.6-14.2,223.1,40.7c-108.7,117.5-120.6,193.7-107.5,243.1
			c14.7,55.9,59.5,72,59.3,133.1c-0.2,75.1-68,95-66.5,174.4c1,52.5,30.7,52,37.8,116.9c8.3,76.8-30.6,103.2-18,160.1
			c5.4,24.4,20.9,56.4,65,89.3c-3.2,23.3-6.4,46.4-9.8,69.1c-8.7,0.3-17.8,0.3-27.4,0.1c-6.4-0.2-12.7-0.5-18.7-0.9
			c-12.1-32.4-26.5-75-39.3-125.8c-13.5-53.5-21.7-101.5-27.5-147.3c-20.4-161.5,3.5-175.6-13.1-295.3
			c-14.7-106-35.6-110.2-60.1-260.7C773.1,1833.9,792.9,1809.4,802.5,1800.6z"/>
		
			<linearGradient id="SVGID_34_" gradientUnits="userSpaceOnUse" x1="-218.829" y1="2279.8486" x2="298.6862" y2="2279.8486" gradientTransform="matrix(-1 0 0 1 753.1995 0)">
			<stop  offset="0" style="stop-color:#E39F00"/>
			<stop  offset="0.9964" style="stop-color:#F78E25"/>
		</linearGradient>
		<path class="st38" d="M972,1847c-93.6,137-194.6,307.5-284.9,511.5c-68.2,154.2-117.7,299-154.1,428c-4.9,2.3-16.5,6.8-31.3,4.9
			c-20.2-2.7-32.3-15.6-35.5-19.2c-14.8-92.5-13.2-170.8-8.1-227.4c3.2-36.2,8.9-96.5,32-170.9c25.8-83.4,43.6-88,77.3-176.2
			c35-91.5,26.5-114.4,60-228.9c13.8-47.1,36.8-117.1,74.8-200.9C792.2,1794.2,882.1,1820.6,972,1847z"/>
		<linearGradient id="SVGID_35_" gradientUnits="userSpaceOnUse" x1="935.8776" y1="2258.8855" x2="1126.509" y2="1179.8424">
			<stop  offset="0" style="stop-color:#7D7D7D"/>
			<stop  offset="1" style="stop-color:#3D3C40"/>
		</linearGradient>
		<path class="st39" d="M1404.2,2020.8c-18,28-80,24.7-122.3,9.6c-99-35.4-162.3-161.2-167.9-261.4c-1.2-21.5-0.4-42.5-4.8-43.2
			c-11-1.6-39.1,128.4-61.2,238.6c-17.8,6.5-44.7,13.4-75.5,8.4c-50.4-8.3-56.4-39.5-112.7-59.9c-32.9-11.9-65.1-11.9-129.5-12
			c-72.7-0.1-74.7,8.9-88.7,2.4c0,0-3.5-1.9-6.4-4c-51.8-37.2,96.4-319.7,53.7-580.4c-4.7-29-12-58.7,4.2-87.7
			c41.8-75,207.1-85.5,309.5-36.2c28.1,13.5,75.1,43.1,117.1,74.3c16.8,12.5,34.2,26.4,52.4,42.3c44.1,38.6,74.9,65.4,100.2,102.7
			c102.1,150.2-15.9,275.4,76.7,467.6C1380.9,1947.8,1423.1,1991.5,1404.2,2020.8z"/>
		
			<linearGradient id="SVGID_36_" gradientUnits="userSpaceOnUse" x1="-306.9" y1="1360.5027" x2="-306.9" y2="1152.7869" gradientTransform="matrix(-1 0 0 1 753.1995 0)">
			<stop  offset="0" style="stop-color:#F6C39A"/>
			<stop  offset="0.9964" style="stop-color:#B37A4E"/>
		</linearGradient>
		<path class="st40" d="M1129.7,1167.8c0,0-26.6,30.2-55.2,45.8c-25.8,14.1-82.7-9.7-95.9-12.5c-13.2-2.8,2.6,32.7,27.5,57.1
			c24.8,24.4,107,80.3,129.1,81.3c22.2,0.9-3.6-18.5-17.2-41.1c-13.6-22.6,5.6-69.3,22.7-83.7
			C1158,1200.5,1129.7,1167.8,1129.7,1167.8z"/>
		
			<linearGradient id="SVGID_37_" gradientUnits="userSpaceOnUse" x1="-704.8751" y1="2049.0842" x2="-611.2342" y2="2049.0842" gradientTransform="matrix(-1 0 0 1 753.1995 0)">
			<stop  offset="0" style="stop-color:#F6C39A"/>
			<stop  offset="0.9964" style="stop-color:#B37A4E"/>
		</linearGradient>
		<path class="st41" d="M1364.4,2019.8c0,0,38.2,18.2,65.2,22.1c27,3.8,32.9,25.4,25.4,33.4c-7.5,7.9-50.5-0.8-64.9-8.8
			C1375.8,2058.3,1364.4,2019.8,1364.4,2019.8z"/>
		<g>
			
				<linearGradient id="SVGID_38_" gradientUnits="userSpaceOnUse" x1="-2111.0874" y1="307.2041" x2="-2199.2949" y2="83.1731" gradientTransform="matrix(-0.8789 -0.477 -0.477 0.8789 -681.8307 -3.5095)">
				<stop  offset="0" style="stop-color:#AB2250"/>
				<stop  offset="0.9964" style="stop-color:#383838"/>
			</linearGradient>
			<path class="st42" d="M1190.8,1191.5c30.2-2.3,60.6-39.4,54.5-55.7c-1.8-4.6-5.7-5.4-64.7-15.1c-29.3-4.8-44-6.8-54.1,1.3
				c-6.2,4.9-11,13.8-12.5,22.1c-0.8,4.3-0.8,10.2-0.1,22c0.7,10.4,0.5,10,0.7,13.1c0.7,7.4,2.7,20.4,9.9,38.5c3-3.3,7-7.2,12-11.1
				c1.9-1.5,9.6-7.3,18.3-10.8C1169.7,1189.7,1181,1192.2,1190.8,1191.5z"/>
			
				<linearGradient id="SVGID_39_" gradientUnits="userSpaceOnUse" x1="-453.727" y1="1300.6404" x2="-356.6129" y2="1111.8075" gradientTransform="matrix(-1 0 0 1 753.1995 0)">
				<stop  offset="0" style="stop-color:#F6C39A"/>
				<stop  offset="0.9964" style="stop-color:#B37A4E"/>
			</linearGradient>
			<path class="st43" d="M1113.4,1197.5c0,0,1.3,28.9,28.5,41.5c24.4,11.3,56.7-39.5,47.8-58.9c-3-6.5-12.2-13.5-21.6-15.7
				c-5.6-1.3-8.3-0.2-17.3-2.5c-8.3-2.1-10-4-13.2-3.4c-4,0.8-9.2,5.4-13,23.3c-2-7-6.4-11.7-11.2-12c-0.8,0-3,0.2-4.8,1.3
				C1102,1175.4,1103.3,1186.1,1113.4,1197.5z"/>
		</g>
		<g>
			<linearGradient id="SVGID_40_" gradientUnits="userSpaceOnUse" x1="1078.4963" y1="1849.5262" x2="1860.1427" y2="858.5107">
				<stop  offset="0" style="stop-color:#F6C39A"/>
				<stop  offset="0.9964" style="stop-color:#B37A4E"/>
			</linearGradient>
			<path class="st44" d="M1759.6,1619.4L423,1632.7c-14,0.2-25.3,10.9-25.3,24.1v397.8c0,13.1,11.4,23.4,25.3,23.1l1336.5-41
				c12.3-0.3,22.2-10.6,22.2-22.8v-372.4C1781.8,1629.1,1771.9,1619.3,1759.6,1619.4z"/>
			<path class="st45" d="M1720.9,1660.4l-1254.1,14.9c-12.8,0.2-23.1,10-23.1,22v315.1c0,12,10.4,21.4,23.1,21.1l1254.1-36.2
				c11.3-0.3,20.4-9.6,20.4-20.9v-295.8C1741.3,1669.2,1732.2,1660.2,1720.9,1660.4z"/>
		</g>
		<linearGradient id="SVGID_41_" gradientUnits="userSpaceOnUse" x1="490.8156" y1="2180.2585" x2="681.4469" y2="1101.2161">
			<stop  offset="0" style="stop-color:#7D7D7D"/>
			<stop  offset="1" style="stop-color:#3D3C40"/>
		</linearGradient>
		<path class="st46" d="M462.7,1779.9c-40.8-20-128.8-71.2-155.9-165.5c-45.1-157,115.2-306.7,197.9-362.7
			c94.9-64.2,190.2-74.6,248.1-80.9c71.9-7.8,115.7-12.6,148.7,14.4c85.2,69.8,34,300-50.4,323.7c-27.6,7.8-38.1-12.4-95.9-26.4
			c-18.8-4.5-159.5-38.4-232.6,36c-51.2,52.1-57.7,145.4-21.6,232.6C488.3,1760.8,475.5,1770.3,462.7,1779.9z"/>
		<linearGradient id="SVGID_42_" gradientUnits="userSpaceOnUse" x1="498.9993" y1="1874.9021" x2="519.727" y2="1757.576">
			<stop  offset="0" style="stop-color:#F6C39A"/>
			<stop  offset="0.9964" style="stop-color:#B37A4E"/>
		</linearGradient>
		<path class="st47" d="M470.9,1773.8l21.6-16.2c0,0,13.5,9.4,30.1,8.1c9-0.7,21,4.7,23.7,7.6c2.7,2.9,15.3,9.7-2.7,8
			c-18-1.8-20.9,3.2-18.4,12.2c2.5,9,17.5,34.2,25.2,39.6c7.6,5.4-14.3,9-23.2,5.7c-9-3.3-23.4-9.3-33.9-28.8
			C489.4,1802.8,470.9,1773.8,470.9,1773.8z"/>
	</g>
</g>
</svg>
