<svg xmlns="http://www.w3.org/2000/svg" xmlns:xlink="http://www.w3.org/1999/xlink" viewBox="0 0 204.23 42.87"><defs><style>.a{fill:#555;}.b{fill:#888;}.c{fill:url(#a);}</style><linearGradient id="a" x1="3031.61" y1="753.67" x2="3031.61" y2="710.8" gradientUnits="userSpaceOnUse"><stop offset="0"/><stop offset="0.04" stop-color="#0a0104"/><stop offset="0.3" stop-color="#500b20"/><stop offset="0.54" stop-color="#871336"/><stop offset="0.74" stop-color="#af1847"/><stop offset="0.9" stop-color="#c71c50"/><stop offset="1" stop-color="#d01d54"/></linearGradient></defs><title>narmafraz logo aiiii</title><path class="a" d="M3082.12,715.71v18.67h-.74l-13.26-17v17h-.91V715.71h.75l13.26,17v-17Z" transform="translate(-3006.9 -710.8)"/><path class="a" d="M3097,730H3088l-2,4.35h-.93l7-15h.88l7,15h-1Zm-.35-.77-4.11-8.86-4.13,8.86Z" transform="translate(-3006.9 -710.8)"/><path class="a" d="M3113.21,734.38l-3.69-5.07c-.67.07-1.2.11-1.57.11h-4.46v5h-.88v-15H3108a6.79,6.79,0,0,1,4.44,1.32,4.49,4.49,0,0,1,1.62,3.67,4.7,4.7,0,0,1-1,3,5,5,0,0,1-2.66,1.7l3.82,5.28Zm-5.26-5.76a5.87,5.87,0,0,0,3.83-1.1,4.31,4.31,0,0,0,0-6.21,5.87,5.87,0,0,0-3.83-1.1h-4.46v8.41Z" transform="translate(-3006.9 -710.8)"/><path class="a" d="M3132.47,734.38V721.15l-6.54,11.2h-.45l-6.54-11.12v13.15h-.85v-15h.75l6.91,11.8,6.83-11.8h.74l0,15Z" transform="translate(-3006.9 -710.8)"/><path class="a" d="M3147.89,730H3139l-2,4.35H3136l7-15h.88l7,15h-1Zm-.35-.77-4.1-8.86-4.14,8.86Z" transform="translate(-3006.9 -710.8)"/><path class="a" d="M3154.43,720.21v6.67h8.16v.78h-8.16v6.72h-.88v-15h10v.8Z" transform="translate(-3006.9 -710.8)"/><path class="a" d="M3177.43,734.38l-3.69-5.07c-.67.07-1.2.11-1.57.11h-4.46v5h-.88v-15h5.34a6.79,6.79,0,0,1,4.44,1.32,4.49,4.49,0,0,1,1.62,3.67,4.7,4.7,0,0,1-.95,3,5,5,0,0,1-2.65,1.7l3.81,5.28Zm-5.26-5.76a5.87,5.87,0,0,0,3.83-1.1,4.31,4.31,0,0,0,0-6.21,5.87,5.87,0,0,0-3.83-1.1h-4.46v8.41Z" transform="translate(-3006.9 -710.8)"/><path class="a" d="M3193.38,730h-8.94l-2,4.35h-.94l7-15h.88l7,15h-1Zm-.34-.77-4.11-8.86-4.14,8.86Z" transform="translate(-3006.9 -710.8)"/><path class="a" d="M3211.12,733.58v.8H3199v-.64l10.67-13.53h-10.56v-.8h11.76v.64l-10.67,13.53Z" transform="translate(-3006.9 -710.8)"/><path class="b" d="M3066.8,742.35h.63l.94,4.58.13.65.13-.64,1.12-4.59h.56l1.09,4.59.15.65.13-.66.93-4.58h.63l-1.37,6.47h-.58l-1.15-4.79-.11-.46-.11.46-1.17,4.79h-.58Z" transform="translate(-3006.9 -710.8)"/><path class="b" d="M3075,745.75v2.51h4v.56h-4.67v-6.47h4.65v.57h-4v2.26h3.48v.57Z" transform="translate(-3006.9 -710.8)"/><path class="b" d="M3080.89,742.35H3083a4.78,4.78,0,0,1,.84.08,2.91,2.91,0,0,1,.77.27,1.7,1.7,0,0,1,.56.54,1.39,1.39,0,0,1,.22.82,1.44,1.44,0,0,1-.09.53,1.3,1.3,0,0,1-.25.39,1.59,1.59,0,0,1-.38.29,3,3,0,0,1-.45.19,2.63,2.63,0,0,1,.54.18,2.15,2.15,0,0,1,.46.33,1.77,1.77,0,0,1,.3.45,1.4,1.4,0,0,1,.12.58,1.66,1.66,0,0,1-.18.8,1.84,1.84,0,0,1-.48.56,2.29,2.29,0,0,1-.76.34,3.28,3.28,0,0,1-.88.12h-2.43Zm2.21,2.87a2.83,2.83,0,0,0,.57-.06,1.41,1.41,0,0,0,.51-.18,1.06,1.06,0,0,0,.38-.35,1,1,0,0,0,.15-.55,1,1,0,0,0-.16-.57,1,1,0,0,0-.4-.35,2.21,2.21,0,0,0-.53-.18,3.06,3.06,0,0,0-.63-.06h-1.43v2.3Zm-1.54,3h1.76a2.89,2.89,0,0,0,.59-.08,1.63,1.63,0,0,0,.53-.21,1.15,1.15,0,0,0,.37-.39,1,1,0,0,0,.15-.58,1.08,1.08,0,0,0-.14-.56,1.12,1.12,0,0,0-.36-.39,2,2,0,0,0-.51-.21,2.32,2.32,0,0,0-.58-.08h-1.81Z" transform="translate(-3006.9 -710.8)"/><path class="b" d="M3093.9,742.35h2a3.27,3.27,0,0,1,1.19.22,3,3,0,0,1,1,.61,3.07,3.07,0,0,1,.86,2.14v.54a3,3,0,0,1-.24,1.21,2.62,2.62,0,0,1-.64.92,2.81,2.81,0,0,1-1,.61,3.38,3.38,0,0,1-1.21.22h-1.94Zm.66,5.91h1.28a2.7,2.7,0,0,0,1-.19,2.18,2.18,0,0,0,1.24-1.24,2.5,2.5,0,0,0,.18-1v-.56a2.47,2.47,0,0,0-.18-.95,2.22,2.22,0,0,0-.47-.75,2.08,2.08,0,0,0-.74-.49,2.69,2.69,0,0,0-1-.19h-1.32Z" transform="translate(-3006.9 -710.8)"/><path class="b" d="M3101.14,745.75v2.51h4v.56h-4.68v-6.47h4.66v.57h-4v2.26h3.47v.57Z" transform="translate(-3006.9 -710.8)"/><path class="b" d="M3109.3,748.11l.16-.53,2-5.23h.73l-2.57,6.47H3109l-2.57-6.47h.73l2,5.23Z" transform="translate(-3006.9 -710.8)"/><path class="b" d="M3114.23,745.75v2.51h4v.56h-4.67v-6.47h4.65v.57h-4v2.26h3.48v.57Z" transform="translate(-3006.9 -710.8)"/><path class="b" d="M3125,748.26v.56h-4.79v-6.47h.7v5.91Z" transform="translate(-3006.9 -710.8)"/><path class="b" d="M3131.31,747.05a2.78,2.78,0,0,1-.51,1,2.36,2.36,0,0,1-1.89.88,2.27,2.27,0,0,1-1.13-.26,2.54,2.54,0,0,1-.81-.68,2.93,2.93,0,0,1-.48-1,3.8,3.8,0,0,1-.17-1.12v-.63a3.85,3.85,0,0,1,.17-1.12,2.86,2.86,0,0,1,.49-1,2.51,2.51,0,0,1,.81-.67,2.33,2.33,0,0,1,1.11-.25,2.35,2.35,0,0,1,1.93.92,2.91,2.91,0,0,1,.49,1,4.29,4.29,0,0,1,.17,1.13v.63A3.64,3.64,0,0,1,3131.31,747.05Zm-.59-2.67a2.77,2.77,0,0,0-.35-.78,2,2,0,0,0-.6-.55,1.91,1.91,0,0,0-1.74,0,1.76,1.76,0,0,0-.59.56,2.3,2.3,0,0,0-.35.78,3.26,3.26,0,0,0-.12.87v.64a4.43,4.43,0,0,0,.12.89,2.46,2.46,0,0,0,.35.77,1.86,1.86,0,0,0,.59.56,1.76,1.76,0,0,0,.88.21,1.7,1.7,0,0,0,.87-.21,1.76,1.76,0,0,0,.6-.55,2.75,2.75,0,0,0,.34-.78,4.43,4.43,0,0,0,.12-.89v-.64A4.34,4.34,0,0,0,3130.72,744.38Z" transform="translate(-3006.9 -710.8)"/><path class="b" d="M3134,748.82h-.65v-6.47h2.34a3.22,3.22,0,0,1,.88.12,2.57,2.57,0,0,1,.74.37,1.83,1.83,0,0,1,.51.62,2.06,2.06,0,0,1,0,1.73,1.72,1.72,0,0,1-.51.59,2.11,2.11,0,0,1-.74.35,3.22,3.22,0,0,1-.88.12H3134Zm1.69-3.14a3.09,3.09,0,0,0,.62-.08,1.37,1.37,0,0,0,.53-.25,1.13,1.13,0,0,0,.37-.41,1.17,1.17,0,0,0,.14-.61,1.21,1.21,0,0,0-.14-.62,1.17,1.17,0,0,0-.36-.43,1.38,1.38,0,0,0-.53-.26,2.59,2.59,0,0,0-.63-.1H3134v2.76Z" transform="translate(-3006.9 -710.8)"/><path class="b" d="M3143.65,742.35h.87v6.47h-.63v-5.7l-1.62,3.52h-.47l-1.63-3.48v5.66h-.64v-6.47h.89l1.61,3.3Z" transform="translate(-3006.9 -710.8)"/><path class="b" d="M3147,745.75v2.51h4v.56h-4.68v-6.47H3151v.57h-4v2.26h3.47v.57Z" transform="translate(-3006.9 -710.8)"/><path class="b" d="M3156.7,748.82l-3.26-5.42v5.42h-.63v-6.47h.62l3.27,5.42,0-5.42h.63v6.47Z" transform="translate(-3006.9 -710.8)"/><path class="b" d="M3162,742.92v5.9h-.67v-5.9h-2.52v-.57h5.71v.57Z" transform="translate(-3006.9 -710.8)"/><path class="b" d="M3173.08,747.09l-.68,1.73h-.69l2.63-6.47h.62l2.61,6.47h-.68l-.68-1.73Zm2.91-.56-1.2-3-.14-.4-.15.39-1.19,3Z" transform="translate(-3006.9 -710.8)"/><path class="b" d="M3183.28,748.47a3.24,3.24,0,0,1-.6.27,3.51,3.51,0,0,1-.66.14l-.64,0a2.86,2.86,0,0,1-1.16-.23,2.64,2.64,0,0,1-.86-.65,2.86,2.86,0,0,1-.56-.94,3.72,3.72,0,0,1-.2-1.16v-.73a3.89,3.89,0,0,1,.19-1.14,2.64,2.64,0,0,1,.52-.93,2.54,2.54,0,0,1,.84-.64,2.71,2.71,0,0,1,1.13-.23,3.26,3.26,0,0,1,.9.12,2.19,2.19,0,0,1,.75.37,2,2,0,0,1,.55.61,2.32,2.32,0,0,1,.3.85h-.66a2,2,0,0,0-.22-.58,1.57,1.57,0,0,0-.38-.43,1.9,1.9,0,0,0-.55-.28,2.48,2.48,0,0,0-.68-.09,2.08,2.08,0,0,0-.89.19,1.77,1.77,0,0,0-.62.53,2.21,2.21,0,0,0-.38.75,3.36,3.36,0,0,0-.13.89v.74a3,3,0,0,0,.14.91,2.19,2.19,0,0,0,.41.77,1.82,1.82,0,0,0,.66.53,1.88,1.88,0,0,0,.91.2h.45a4,4,0,0,0,.48-.08,2.23,2.23,0,0,0,.43-.16,1.41,1.41,0,0,0,.37-.27v-1.58h-1.8v-.54h2.45v2.35A1.83,1.83,0,0,1,3183.28,748.47Z" transform="translate(-3006.9 -710.8)"/><path class="b" d="M3186.25,745.75v2.51h4v.56h-4.68v-6.47h4.66v.57h-4v2.26h3.47v.57Z" transform="translate(-3006.9 -710.8)"/><path class="b" d="M3196,748.82l-3.26-5.42,0,5.42h-.64v-6.47h.63l3.26,5.42,0-5.42h.62v6.47Z" transform="translate(-3006.9 -710.8)"/><path class="b" d="M3203.11,747.7a2.07,2.07,0,0,1-.55.66,2.23,2.23,0,0,1-.78.41,2.91,2.91,0,0,1-1,.14,2.44,2.44,0,0,1-1.1-.24,2.36,2.36,0,0,1-.82-.64,2.68,2.68,0,0,1-.51-.94,3.5,3.5,0,0,1-.18-1.12v-.75a3.58,3.58,0,0,1,.18-1.14,2.87,2.87,0,0,1,.52-.94,2.46,2.46,0,0,1,.82-.64,2.54,2.54,0,0,1,1.13-.24,3.26,3.26,0,0,1,1,.14,2.09,2.09,0,0,1,.76.42,2.22,2.22,0,0,1,.54.67,2.85,2.85,0,0,1,.28.91h-.66a2.64,2.64,0,0,0-.22-.67,1.66,1.66,0,0,0-.38-.49,1.57,1.57,0,0,0-.55-.31,2.37,2.37,0,0,0-.72-.1,1.79,1.79,0,0,0-1.5.73,2.32,2.32,0,0,0-.36.76,3,3,0,0,0-.13.89V746a3.15,3.15,0,0,0,.12.87,2.48,2.48,0,0,0,.36.77,1.74,1.74,0,0,0,.61.53,1.68,1.68,0,0,0,.86.2,2.22,2.22,0,0,0,.76-.1,1.59,1.59,0,0,0,.57-.32,1.62,1.62,0,0,0,.37-.48,2.44,2.44,0,0,0,.21-.66h.66A2.62,2.62,0,0,1,3203.11,747.7Z" transform="translate(-3006.9 -710.8)"/><path class="b" d="M3207.12,746.44l-2.58-4.09h.77l2.08,3.42.07.12.07-.12,2.09-3.42h.77l-2.6,4.13v2.34h-.67Z" transform="translate(-3006.9 -710.8)"/><path class="c" d="M3053.26,711.63a6.06,6.06,0,0,0-6.45.2l-14.61,9.75-10.74-7.85a8,8,0,0,0-4.09-1.53,8.09,8.09,0,0,0-7.19,3.36,8,8,0,0,0-1.46,4.12l-1.81,27.47a6.11,6.11,0,0,0,9.49,5.49L3031,742.9l10.71,7.84a8.07,8.07,0,0,0,4.09,1.53c.2,0,.41,0,.62,0a8.08,8.08,0,0,0,3.41-.76,8,8,0,0,0,4.62-6.73l1.83-27.47A6.07,6.07,0,0,0,3053.26,711.63ZM3052,717l-1.83,27.47a3.75,3.75,0,0,1-5.95,2.78l-20.35-14.9v-.15a3.84,3.84,0,1,0-3.84,3.84,4.11,4.11,0,0,0,1.32-.23l6,4.36L3014,749.08a1.84,1.84,0,0,1-2.85-1.65L3013,720a3.75,3.75,0,0,1,6-2.78l20.38,14.9v.16a3.86,3.86,0,1,0,2.52-3.61l-6-4.37,13.31-8.87a1.8,1.8,0,0,1,1.94-.06A1.77,1.77,0,0,1,3052,717Z" transform="translate(-3006.9 -710.8)"/></svg>