<?xml version="1.0" standalone="no"?>
<!DOCTYPE svg PUBLIC "-//W3C//DTD SVG 20010904//EN"
 "http://www.w3.org/TR/2001/REC-SVG-20010904/DTD/svg10.dtd">
<svg version="1.0" xmlns="http://www.w3.org/2000/svg"
 width="1600.000000pt" height="1600.000000pt" viewBox="0 0 1600.000000 1600.000000"
 preserveAspectRatio="xMidYMid meet">
<metadata>
Created by potrace 1.14, written by Peter Selinger 2001-2017
</metadata>
<g transform="translate(0.000000,1600.000000) scale(0.100000,-0.100000)"
fill="#000000" stroke="none">
<path d="M13900 14938 c-158 -14 -198 -20 -309 -44 -201 -45 -409 -128 -580
-232 -41 -24 -1141 -755 -2444 -1624 -2097 -1398 -2372 -1579 -2391 -1569 -12
6 -78 52 -147 103 -70 51 -220 162 -335 245 -410 300 -509 372 -519 380 -5 5
-44 33 -85 62 -76 55 -247 180 -1000 731 -228 167 -464 340 -525 384 -113 81
-221 160 -265 194 -216 161 -679 493 -755 541 -115 72 -298 163 -434 216 -85
33 -297 98 -354 109 -205 39 -244 45 -352 53 -158 13 -449 7 -560 -12 -49 -8
-98 -17 -125 -22 -819 -151 -1532 -693 -1881 -1428 -101 -213 -180 -460 -214
-667 -3 -18 -7 -44 -10 -58 -11 -61 -23 -177 -30 -300 -3 -52 -8 -122 -11
-155 -2 -33 -6 -96 -9 -140 -2 -44 -7 -114 -10 -155 -3 -41 -7 -111 -10 -155
-3 -44 -7 -114 -10 -155 -8 -119 -23 -340 -30 -450 -12 -181 -15 -230 -20
-305 -3 -44 -8 -114 -10 -155 -3 -41 -7 -109 -10 -150 -8 -109 -14 -203 -20
-305 -3 -49 -7 -115 -10 -145 -2 -30 -7 -100 -10 -155 -3 -55 -8 -127 -10
-160 -8 -95 -21 -293 -30 -460 -3 -60 -8 -121 -10 -135 -2 -14 -6 -81 -10
-150 -4 -69 -8 -141 -10 -160 -2 -19 -6 -87 -10 -150 -4 -63 -8 -133 -10 -155
-2 -22 -6 -87 -10 -145 -3 -58 -8 -132 -10 -165 -6 -90 -16 -223 -20 -285 -2
-30 -7 -100 -10 -155 -3 -55 -8 -125 -10 -155 -2 -30 -7 -98 -10 -150 -3 -52
-7 -124 -10 -160 -3 -36 -7 -103 -10 -150 -3 -47 -7 -116 -10 -155 -3 -38 -8
-99 -10 -135 -2 -36 -6 -108 -10 -160 -3 -52 -8 -120 -9 -150 -12 -185 -17
-260 -21 -300 -3 -25 -8 -97 -11 -160 -3 -63 -7 -131 -9 -150 -1 -19 -5 -87
-10 -150 -4 -63 -8 -137 -10 -165 -7 -85 -19 -284 -30 -455 -2 -41 -7 -104
-10 -140 -2 -36 -7 -105 -11 -155 -3 -49 -7 -115 -9 -145 -2 -30 -6 -100 -10
-155 -3 -55 -8 -120 -10 -145 -2 -25 -7 -97 -10 -160 -4 -63 -8 -131 -10 -150
-2 -19 -6 -87 -10 -150 -4 -63 -8 -136 -10 -162 -16 -204 -20 -296 -20 -453 0
-99 3 -210 7 -246 24 -213 107 -484 206 -669 36 -68 118 -204 139 -230 6 -8
40 -51 74 -95 70 -91 211 -232 309 -310 278 -222 625 -370 980 -419 119 -17
361 -23 430 -12 27 5 91 13 157 21 59 7 253 58 343 90 93 33 298 132 365 176
28 18 1116 744 2419 1612 2063 1375 2372 1578 2390 1569 12 -6 32 -19 46 -31
25 -20 308 -227 640 -468 96 -70 177 -130 180 -133 3 -3 46 -34 95 -70 50 -35
135 -97 190 -138 55 -40 109 -80 120 -88 29 -21 581 -425 775 -566 166 -122
196 -144 312 -229 160 -117 267 -196 443 -324 105 -76 222 -162 260 -190 226
-166 309 -227 385 -282 417 -298 864 -465 1340 -500 158 -12 399 -6 520 12
326 49 587 129 845 258 97 49 258 143 301 176 12 9 32 23 45 31 66 44 234 186
324 274 245 243 433 521 564 835 97 235 167 513 186 741 3 36 7 88 10 115 2
28 7 91 10 140 11 175 15 231 21 310 8 112 12 185 19 295 3 52 7 122 10 155 2
33 7 98 10 145 3 47 8 114 10 150 3 36 7 103 10 150 3 47 8 117 11 155 2 39 7
99 9 135 4 64 10 157 20 295 2 39 7 113 10 165 3 52 8 120 10 150 2 30 7 98
10 150 3 52 8 120 10 150 6 77 14 200 20 300 8 119 15 225 20 295 2 33 7 98
10 145 9 146 15 243 21 310 2 36 7 101 9 145 6 100 14 233 20 305 3 30 7 93
10 140 2 47 7 121 10 165 7 93 13 187 20 283 2 37 7 103 10 147 3 44 8 116 10
160 2 44 7 112 10 150 14 194 20 288 30 460 3 55 7 120 10 145 2 25 6 90 10
145 3 55 8 125 10 155 2 30 6 93 10 140 3 47 7 119 10 160 3 41 8 104 10 140
4 65 10 163 20 295 2 39 7 113 10 165 3 52 8 120 10 150 8 108 18 246 20 290
3 67 16 258 21 310 2 25 6 92 9 150 3 58 8 128 10 155 2 28 7 93 10 145 3 52
8 118 10 145 2 28 7 95 10 150 7 101 8 116 22 317 10 143 10 452 1 539 -16
141 -59 314 -115 464 -45 122 -174 366 -229 434 -7 9 -41 52 -75 96 -268 345
-708 615 -1146 704 -185 38 -378 52 -523 39z m261 -1402 c209 -54 374 -214
433 -420 17 -56 22 -186 12 -301 -2 -22 -6 -89 -10 -150 -4 -60 -9 -130 -11
-155 -2 -25 -7 -94 -10 -155 -4 -60 -8 -126 -10 -145 -2 -19 -6 -84 -10 -145
-3 -60 -8 -132 -10 -160 -3 -27 -7 -95 -11 -150 -3 -55 -7 -118 -9 -140 -1
-22 -6 -87 -9 -145 -4 -58 -9 -130 -11 -160 -2 -30 -7 -100 -10 -155 -3 -55
-8 -125 -10 -155 -4 -49 -8 -113 -20 -290 -2 -30 -7 -98 -10 -150 -8 -120 -11
-171 -19 -295 -4 -55 -9 -125 -11 -155 -3 -30 -7 -91 -10 -135 -3 -44 -7 -116
-10 -160 -3 -44 -7 -114 -10 -155 -5 -82 -13 -197 -20 -305 -10 -145 -16 -232
-20 -295 -8 -116 -16 -234 -20 -295 -3 -33 -7 -100 -10 -150 -3 -49 -7 -121
-10 -160 -10 -137 -15 -211 -20 -290 -12 -184 -16 -243 -20 -300 -2 -33 -7
-103 -10 -155 -4 -52 -8 -120 -10 -150 -4 -58 -14 -205 -20 -305 -6 -88 -15
-231 -20 -300 -5 -74 -14 -207 -20 -300 -2 -38 -7 -101 -10 -140 -6 -79 -14
-199 -30 -470 -3 -55 -8 -120 -10 -145 -2 -25 -7 -90 -10 -145 -3 -55 -8 -122
-10 -150 -3 -27 -7 -90 -10 -140 -3 -49 -7 -119 -10 -155 -3 -36 -7 -99 -10
-140 -11 -177 -15 -230 -20 -310 -3 -47 -7 -114 -10 -150 -2 -36 -7 -105 -10
-155 -3 -49 -8 -119 -10 -155 -5 -70 -12 -166 -20 -295 -14 -220 -44 -354
-116 -513 -26 -57 -104 -190 -119 -202 -3 -3 -13 -15 -21 -27 -25 -36 -131
-145 -184 -189 -76 -62 -131 -97 -230 -147 -129 -64 -249 -103 -388 -124 -88
-14 -299 -8 -382 11 -124 27 -188 49 -280 92 -96 45 -146 78 -393 259 -128 93
-261 190 -296 215 -35 25 -161 117 -280 205 -119 88 -230 169 -246 180 -25 17
-455 332 -750 549 -157 115 -243 178 -288 210 -23 17 -58 42 -76 56 -19 14
-46 34 -61 45 -15 11 -84 62 -154 113 -69 51 -171 125 -226 164 -55 40 -104
76 -110 80 -16 14 -213 158 -310 228 -49 36 -97 70 -105 77 -28 23 -1165 854
-1200 878 -29 20 -152 110 -280 205 -25 18 -406 297 -445 325 -11 8 -74 55
-140 103 -95 70 -395 289 -790 577 -15 11 -55 41 -88 66 -50 37 -548 399 -554
403 -1 1 -4 48 -7 106 -27 459 -268 841 -666 1053 -250 133 -576 176 -856 112
-445 -102 -812 -457 -924 -895 -32 -126 -40 -191 -41 -315 -1 -81 8 -202 16
-215 2 -3 6 -25 10 -49 19 -127 106 -325 201 -457 153 -212 345 -361 578 -449
251 -94 546 -104 795 -26 36 11 69 17 75 14 13 -8 294 -213 316 -230 8 -6 143
-105 300 -220 157 -114 287 -210 290 -214 3 -3 10 -8 16 -10 6 -2 24 -14 40
-27 16 -12 67 -50 114 -85 360 -263 548 -401 567 -415 12 -9 78 -57 147 -107
69 -49 126 -92 126 -95 0 -5 -4276 -2857 -4348 -2901 -19 -11 -67 -31 -109
-45 -328 -110 -705 121 -760 466 -5 32 -4 216 1 256 5 30 16 190 21 294 4 77
16 268 20 310 2 19 6 85 10 145 3 61 8 135 10 165 7 88 16 215 29 445 3 50 8
115 11 145 3 30 8 100 11 155 5 113 10 182 18 305 4 47 9 121 11 165 3 44 8
109 10 145 5 69 11 163 20 300 7 124 15 237 20 300 2 30 7 98 10 150 8 128 13
221 19 305 8 111 17 235 21 300 14 224 17 275 20 315 3 42 12 177 20 310 2 30
6 91 9 135 3 44 8 114 11 155 6 115 15 239 20 305 3 33 7 101 10 150 3 50 8
117 10 150 3 33 7 101 10 150 3 50 8 119 10 155 3 36 7 106 10 155 3 50 7 117
10 150 10 145 15 226 20 310 3 50 8 117 10 150 2 33 7 101 10 150 3 50 8 117
10 150 4 54 8 121 20 302 2 34 7 102 10 150 8 121 12 180 20 308 4 61 9 130
10 155 2 25 6 92 10 150 3 58 8 125 10 150 2 25 6 88 10 140 12 194 15 247 20
315 3 39 8 108 10 155 3 47 7 114 10 150 2 36 7 103 10 150 11 169 16 217 36
312 95 469 466 831 959 934 91 20 302 25 399 11 163 -23 366 -105 508 -204 54
-37 388 -280 513 -373 14 -10 66 -48 115 -84 50 -36 95 -69 100 -73 6 -5 118
-87 250 -183 251 -183 522 -381 775 -567 52 -38 205 -150 340 -248 135 -98
277 -202 315 -230 62 -46 204 -150 260 -191 327 -238 544 -396 780 -570 105
-76 201 -147 215 -156 14 -9 126 -91 250 -182 124 -91 234 -172 245 -180 31
-22 417 -305 445 -326 162 -120 661 -483 720 -525 16 -11 152 -110 302 -221
370 -272 742 -544 781 -571 18 -12 75 -53 127 -92 l94 -69 2 -69 c3 -164 30
-302 87 -443 176 -436 579 -738 1042 -779 243 -21 461 21 679 132 190 97 357
244 474 418 63 93 148 286 166 375 3 10 9 41 16 68 33 146 31 346 -4 516 -47
221 -167 440 -336 610 -268 270 -641 399 -1030 356 -69 -7 -223 -43 -253 -58
-14 -7 -40 7 -120 65 -153 111 -961 701 -1046 764 -13 10 -61 45 -106 78 -333
241 -674 491 -674 495 -1 6 4295 2870 4356 2904 121 69 272 88 414 52z"/>
</g>
</svg>
